# xmcd CD database file
#
# Track frame offsets:
#	150
#	10582
#	22574
#	34176
#	47645
#	57325
#	68203
#	78467
#	89977
#	102610
#	115299
#	127570
#	139534
#	151611
#	165364
#	177018
#	190455
#	202589
#	212214
#	224409
#
# Disc length: 3235 seconds
#
# Revision: 1
# Processed by: cddbd v1.5.2PL0 Copyright (c) Steve Scherf et al.
# Submitted via: CDex 1.70beta2
#
DISCID=030ca114
DTITLE=Lighnin' Hopkins - 20 Légendes du Blues CD 12
DYEAR=2008
DGENRE=Blues
TTITLE0=Lightnin's Boogie
TTITLE1=Have To Let You Go
TTITLE2=Honey Babe
TTITLE3=Unpredictable Woman
TTITLE4=Feel So Bad
TTITLE5=Short Haired Woman
TTITLE6=Down Baby
TTITLE7=Let Me Play With Your Poodle
TTITLE8=Fast Mail Rambler
TTITLE9=Picture On The Wall
TTITLE10=Sugar On My Mind
TTITLE11=Someday Baby
TTITLE12=Come Back, Baby
TTITLE13=Untrue Blues
TTITLE14=Papa Bones Boogie
TTITLE15=Sad News From Korea
TTITLE16=Shotgun Blues
TTITLE17=Henny Penny Blues
TTITLE18=Contrary Mary
TTITLE19=Let Me Fly Your Kite
EXTD=YEAR: 2008
EXTT0=
EXTT1=
EXTT2=
EXTT3=
EXTT4=
EXTT5=
EXTT6=
EXTT7=
EXTT8=
EXTT9=
EXTT10=
EXTT11=
EXTT12=
EXTT13=
EXTT14=
EXTT15=
EXTT16=
EXTT17=
EXTT18=
EXTT19=
PLAYORDER=
